<svg width="16" height="12" viewBox="0 0 16 12" fill="none" xmlns="http://www.w3.org/2000/svg">
<path d="M7.44594 3.64239C7.40676 3.54143 7.47066 3.42857 7.57895 3.42857C8.97369 3.42857 10.1053 4.55625 10.1053 6C10.1053 7.41964 8.97369 8.57143 7.57895 8.57143C6.16053 8.57143 5.05263 7.41964 5.05263 6C5.05263 5.89066 5.16723 5.82653 5.26878 5.86705C5.4621 5.94417 5.6735 6 5.89474 6C6.82369 6 7.57895 5.23125 7.57895 4.28571C7.57895 4.05816 7.52294 3.84084 7.44594 3.64239ZM12.6474 2.15893C13.879 3.32143 14.7026 4.69018 15.0921 5.67054C15.1789 5.88214 15.1789 6.11786 15.0921 6.32946C14.7026 7.28571 13.879 8.65446 12.6474 9.84107C11.4079 11.0143 9.70527 12 7.57895 12C5.45263 12 3.75 11.0143 2.51106 9.84107C1.27948 8.65446 0.456319 7.28571 0.0647664 6.32946C-0.0215888 6.11786 -0.0215888 5.88214 0.0647664 5.67054C0.456319 4.69018 1.27948 3.32143 2.51106 2.15893C3.75 0.986786 5.45263 0 7.57895 0C9.70527 0 11.4079 0.986786 12.6474 2.15893ZM7.57895 2.14286C5.48685 2.14286 3.78948 3.87054 3.78948 6C3.78948 8.12946 5.48685 9.85714 7.57895 9.85714C9.67105 9.85714 11.3684 8.12946 11.3684 6C11.3684 3.87054 9.67105 2.14286 7.57895 2.14286Z" fill="#838383"/>
</svg>
