<svg width="18" height="18" viewBox="0 0 18 18" fill="none" xmlns="http://www.w3.org/2000/svg">
<g clip-path="url(#clip0_40_135)">
<path d="M7.30547 0.728783C4.02012 1.37285 1.37461 4.02152 0.731248 7.30652C-0.240471 12.26 3.14472 16.6651 7.73086 17.3296C8.39918 17.4311 9.00246 16.8985 9.00246 16.2225L9.00246 16.1992C9.00246 15.6458 8.60028 15.1839 8.05887 15.1009C5.09344 14.6446 2.81356 12.0729 2.81356 8.97668C2.81356 5.3591 5.92875 2.4552 9.61277 2.81028C12.831 3.12208 15.1886 6.01828 15.1886 9.2509V9.81903C15.1886 10.5956 14.5579 11.227 13.7823 11.227C13.0068 11.227 12.3757 10.5956 12.3757 9.81903V5.59676C12.3757 5.28573 12.124 5.03356 11.8129 5.03356L10.6886 5.03368C10.4319 5.03368 10.2245 5.20918 10.157 5.44431C9.28336 5.01716 8.25012 4.86845 7.13145 5.2648C5.76914 5.7475 4.7366 6.98429 4.53973 8.41621C4.20634 10.8423 6.07992 12.9162 8.43856 12.9162C9.36809 12.9162 10.2115 12.5807 10.8851 12.0415C11.7288 13.1419 13.1783 13.7533 14.7312 13.3595C16.3547 12.9832 17.4375 11.3941 17.4059 9.74531V9.01054C17.4059 3.76523 12.6984 -0.328085 7.30547 0.728783ZM8.40586 10.698C7.47527 10.698 6.71836 9.94007 6.71836 9.00878C6.71836 8.07749 7.47527 7.31952 8.40586 7.31952C9.33644 7.31952 10.0934 8.07749 10.0934 9.00878C10.0934 9.94007 9.36914 10.698 8.40586 10.698Z" fill="#838383"/>
</g>
<defs>
<clipPath id="clip0_40_135">
<rect width="18" height="18" fill="white"/>
</clipPath>
</defs>
</svg>
