<svg width="13" height="18" viewBox="0 0 13 18" fill="none" xmlns="http://www.w3.org/2000/svg">
<g clip-path="url(#clip0_40_128)">
<path d="M5.69766 17.55C3.93047 15.293 0 9.82266 0 6.75C0 3.02203 2.9101 0 6.5 0C10.0885 0 13 3.02203 13 6.75C13 9.82266 9.03906 15.293 7.30234 17.55C6.88594 18.0879 6.11406 18.0879 5.69766 17.55ZM6.5 9C7.69505 9 8.66667 7.99102 8.66667 6.75C8.66667 5.50898 7.69505 4.5 6.5 4.5C5.30495 4.5 4.33333 5.50898 4.33333 6.75C4.33333 7.99102 5.30495 9 6.5 9Z" fill="#838383"/>
</g>
<defs>
<clipPath id="clip0_40_128">
<rect width="13" height="18" fill="white"/>
</clipPath>
</defs>
</svg>
