<svg width="18" height="18" viewBox="0 0 18 18" fill="none" xmlns="http://www.w3.org/2000/svg">
<g clip-path="url(#clip0_40_132)">
<path d="M17.9719 13.6054L17.1545 17.1492C17.0397 17.6502 16.5994 18.0007 16.0836 18.0007C7.21406 18 0 10.7859 0 1.91598C0 1.40059 0.350473 0.959728 0.851484 0.845471L4.39523 0.0280878C4.91133 -0.0915138 5.43867 0.176377 5.65313 0.665119L7.28859 4.47957C7.47977 4.92887 7.35082 5.45235 6.97289 5.76102L5.08008 7.28082C6.27469 9.71434 8.25328 11.6929 10.6875 12.8882L12.2372 10.9968C12.5426 10.6179 13.07 10.4867 13.5193 10.6813L17.3338 12.3164C17.7926 12.5578 18.0914 13.0922 17.9719 13.6054Z" fill="#838383"/>
</g>
<defs>
<clipPath id="clip0_40_132">
<rect width="18" height="18" fill="white"/>
</clipPath>
</defs>
</svg>
