<svg width="25" height="22" viewBox="0 0 25 22" fill="none" xmlns="http://www.w3.org/2000/svg">
<g clip-path="url(#clip0_40_225)">
<path d="M13.78 9.625H17.914C18.6749 9.625 19.292 9.00926 19.292 8.25C19.292 7.49074 18.6749 6.875 17.914 6.875H13.8187C13.0578 6.875 12.4407 7.49074 12.4407 8.25C12.4407 9.00926 13.0178 9.625 13.78 9.625ZM13.78 15.125H20.67C21.4309 15.125 22.0479 14.5093 22.0479 13.75C22.0479 12.9907 21.4309 12.375 20.67 12.375H13.8187C13.0578 12.375 12.4407 12.9907 12.4407 13.75C12.4407 14.5093 13.0178 15.125 13.78 15.125ZM13.78 4.125H15.158C15.9189 4.125 16.4972 3.50926 16.4972 2.75C16.4972 1.99074 15.8801 1.375 15.158 1.375H13.78C13.0191 1.375 12.402 1.99074 12.402 2.75C12.402 3.50926 13.0178 4.125 13.78 4.125ZM23.4259 17.875H13.8187C13.0578 17.875 12.4407 18.4907 12.4407 19.25C12.4407 20.0093 13.0578 20.625 13.8187 20.625H23.4259C24.1869 20.625 24.8039 20.0093 24.8039 19.25C24.8039 18.4907 24.1881 17.875 23.4259 17.875ZM8.28522 14.2098L6.89 15.7309V2.75129C6.89 1.99074 6.2742 1.375 5.512 1.375C4.7498 1.375 4.134 1.99074 4.134 2.75129V15.7278L2.73878 14.2098C2.46697 13.914 2.09543 13.7637 1.72208 13.7637C1.38968 13.7637 1.05591 13.8832 0.791504 14.1253C0.230402 14.6388 0.192937 15.5097 0.706714 16.0705L4.45745 20.1994C4.97936 20.7691 5.96721 20.7691 6.48956 20.1994L10.2403 16.0705C10.7545 15.5097 10.7166 14.6392 10.1555 14.1253C9.67182 13.6125 8.80196 13.6512 8.28522 14.2098Z" fill="#FF8F52"/>
</g>
<defs>
<clipPath id="clip0_40_225">
<rect width="24.8039" height="22" fill="white"/>
</clipPath>
</defs>
</svg>
