<svg width="15" height="12" viewBox="0 0 15 12" fill="none" xmlns="http://www.w3.org/2000/svg">
<path d="M0 4.0767V3.91774C0 2.002 1.38459 0.368009 3.27237 0.0533794C4.49745 -0.154638 5.7938 0.252627 6.68726 1.14746L6.69937 1.15955C6.87237 1.33227 7.15421 1.32678 7.32035 1.14746C8.23848 0.252627 9.51016 -0.154638 10.7599 0.0533794C12.6482 0.368009 14.0323 2.002 14.0323 3.91774V4.0767C14.0323 5.21408 13.5609 6.30213 12.7277 7.07774L7.77531 11.7013C7.56976 11.8931 7.29843 12 7.01614 12C6.73385 12 6.46252 11.8931 6.25697 11.7013L1.30429 7.07774C0.472219 6.30213 0 5.21408 0 4.0767Z" fill="#838383"/>
</svg>
